<svg id="visual" viewBox="0 0 900 600" width="900" height="600" xmlns="http://www.w3.org/2000/svg" xmlns:xlink="http://www.w3.org/1999/xlink" version="1.1"><rect x="0" y="0" width="900" height="600" fill="#fff"></rect><path d="M233 0L231 25C229 50 225 100 235 150C245 200 269 250 277.2 300C285.3 350 277.7 400 249.5 450C221.3 500 172.7 550 148.3 575L124 600L0 600L0 575C0 550 0 500 0 450C0 400 0 350 0 300C0 250 0 200 0 150C0 100 0 50 0 25L0 0Z" fill="#000" stroke-linecap="round" stroke-linejoin="miter"></path></svg>